<svg width="136" height="136" viewBox="0 0 136 136" fill="none" xmlns="http://www.w3.org/2000/svg">
<path d="M14.9607 19.0391C8.2457 19.0391 2.75258 24.5216 2.7207 31.2366C2.7207 31.2366 2.7207 31.2472 2.7207 31.2578C2.7207 31.2684 2.7207 31.2684 2.7207 31.2791V104.719C2.7207 111.445 8.23508 116.959 14.9607 116.959H121.041C127.766 116.959 133.281 111.445 133.281 104.719V31.2791C133.281 31.2684 133.281 31.2684 133.281 31.2578C133.281 31.2472 133.281 31.2366 133.281 31.2366C133.249 24.5216 127.756 19.0391 121.041 19.0391H14.9607ZM22.037 24.4791H113.975L68.0007 56.5241L22.037 24.4791ZM12.9845 24.7978L68.0007 63.1541L123.028 24.7978C125.811 25.6372 127.819 28.1659 127.841 31.2472C127.83 31.8209 127.246 32.9684 126.396 33.8928C125.535 34.8278 124.696 35.4122 124.696 35.4122L124.685 35.4334L68.0007 75.5534L11.3163 35.4334L11.3057 35.4122C11.3057 35.4122 10.4663 34.8278 9.6057 33.8928C8.7557 32.9684 8.17133 31.8209 8.1607 31.2472C8.18195 28.1659 10.1901 25.6372 12.9845 24.7978ZM8.1607 39.8534L8.18195 39.8747L8.2032 39.8853V39.8959L16.3207 45.6334V111.519H14.9607C11.1782 111.519 8.1607 108.502 8.1607 104.719V39.8534ZM127.841 39.8534V104.719C127.841 108.502 124.823 111.519 121.041 111.519H119.681V45.6334L127.798 39.8959V39.8853L127.841 39.8534ZM21.7607 49.4797L68.0007 82.2047L114.241 49.4797V111.519H21.7607V49.4797Z" fill="white"/>
</svg>
