<svg width="126" height="98" viewBox="0 0 126 98" fill="none" xmlns="http://www.w3.org/2000/svg">
<path d="M106.666 8.12363C98.6366 4.36295 90.0227 1.59284 81.0193 0.00616828C80.856 -0.0230522 80.6928 0.0529206 80.6069 0.204867C79.4986 2.21524 78.273 4.83632 77.4139 6.89929C67.7289 5.42073 58.0926 5.42073 48.6081 6.89929C47.749 4.79249 46.4775 2.21524 45.3635 0.204867C45.2776 0.0558427 45.1144 -0.0201302 44.9512 0.00616828C35.9506 1.587 27.3395 4.3571 19.304 8.12363C19.2353 8.15285 19.1752 8.20544 19.1351 8.27265C2.80062 33.1744 -1.67532 57.4654 0.521124 81.4525C0.529715 81.5694 0.59558 81.6833 0.684354 81.7535C11.4604 89.83 21.9014 94.7332 32.1476 97.9826C32.3109 98.0322 32.4856 97.9738 32.5886 97.8335C35.0113 94.4556 37.1734 90.8966 39.0262 87.1505C39.135 86.9314 39.0319 86.6713 38.8086 86.5836C35.3807 85.257 32.119 83.6411 28.9804 81.8031C28.7313 81.6541 28.7112 81.2918 28.9403 81.1194C29.6018 80.6139 30.2605 80.0879 30.8933 79.559C31.0079 79.4626 31.1654 79.4421 31.3 79.5035C51.9214 89.1112 74.2466 89.1112 94.6246 79.5035C94.7592 79.4363 94.9167 79.4567 95.037 79.5532C95.667 80.085 96.3285 80.6139 96.9929 81.1194C97.222 81.2918 97.2077 81.6541 96.9585 81.8031C93.8199 83.6762 90.5553 85.257 87.1246 86.5778C86.9013 86.6655 86.801 86.9284 86.9099 87.1505C88.8027 90.8907 90.962 94.4498 93.3417 97.8277C93.4419 97.9709 93.6195 98.0322 93.7827 97.9796C104.078 94.7303 114.519 89.8271 125.295 81.7506C125.389 81.6804 125.449 81.5723 125.458 81.4554C128.084 53.7222 121.056 29.6328 106.83 8.27557C106.795 8.20544 106.735 8.15285 106.666 8.12363ZM42.1047 66.8452C35.8962 66.8452 30.7817 61.0303 30.7817 53.8859C30.7817 46.7415 35.7988 40.9266 42.1047 40.9266C48.462 40.9266 53.5279 46.7941 53.4277 53.8859C53.4305 61.0274 48.4134 66.8452 42.1047 66.8452ZM83.9746 66.8452C77.7661 66.8452 72.6516 61.0303 72.6516 53.8859C72.6516 46.7415 77.6687 40.9266 83.9746 40.9266C90.332 40.9266 95.3978 46.7941 95.2976 53.8859C95.2976 61.0274 90.332 66.8452 83.9746 66.8452Z" fill="white"/>
</svg>
