<svg width="139" height="100" viewBox="0 0 139 100" fill="none" xmlns="http://www.w3.org/2000/svg">
<path d="M11.3115 43.1207C46.5295 27.1675 92.1044 7.71735 98.3954 5.02531C114.897 -2.02073 119.961 -0.670388 117.436 14.9336C115.623 26.149 110.392 63.2807 106.222 86.3924C103.748 100.098 98.1964 101.722 89.4676 95.7929C85.2699 92.9392 64.0825 78.5125 59.4841 75.1251C55.2864 72.0377 49.4971 68.3243 56.7575 61.0099C59.3412 58.4044 76.2776 41.753 89.4732 28.792C91.2021 27.0896 89.0304 24.2937 87.0353 25.6585C69.2497 37.803 44.5904 54.6592 41.452 56.855C36.7106 60.1702 32.1571 61.6908 23.9831 59.2729C17.807 57.4465 11.7739 55.268 9.42567 54.437C0.382987 51.2401 2.52947 47.0996 11.3115 43.1207Z" fill="white"/>
</svg>
