<svg width="46" height="36" viewBox="0 0 46 36" fill="none" xmlns="http://www.w3.org/2000/svg">
<path d="M38.9417 2.98419C36.0102 1.60272 32.8654 0.585126 29.5785 0.0022659C29.5189 -0.00846817 29.4593 0.0194402 29.4279 0.0752574C29.0233 0.813761 28.5759 1.77661 28.2622 2.53443C24.7264 1.99129 21.2084 1.99129 17.7458 2.53443C17.4322 1.76051 16.968 0.813761 16.5613 0.0752574C16.5299 0.0205136 16.4703 -0.00739476 16.4107 0.0022659C13.1248 0.582979 9.98109 1.60057 7.0475 2.98419C7.02241 2.99492 7.00045 3.01424 6.98582 3.03893C1.02245 12.1865 -0.611625 21.1097 0.190251 29.9213C0.193388 29.9643 0.217434 30.0061 0.249844 30.0319C4.18395 32.9988 7.99574 34.8 11.7364 35.9936C11.796 36.0118 11.8598 35.9904 11.8974 35.9388C12.7819 34.698 13.5712 33.3906 14.2477 32.0145C14.2874 31.934 14.2498 31.8384 14.1682 31.8062C12.9168 31.3189 11.726 30.7253 10.5801 30.0501C10.4892 29.9954 10.4819 29.8623 10.5655 29.799C10.807 29.6133 11.0475 29.4201 11.2785 29.2258C11.3203 29.1903 11.3778 29.1828 11.427 29.2054C18.9554 32.7347 27.1059 32.7347 34.5455 29.2054C34.5946 29.1807 34.6521 29.1882 34.696 29.2236C34.926 29.419 35.1676 29.6133 35.4101 29.799C35.4937 29.8623 35.4885 29.9954 35.3976 30.0501C34.2517 30.7382 33.0599 31.3189 31.8074 31.8041C31.7259 31.8363 31.6893 31.9329 31.729 32.0145C32.4201 33.3884 33.2083 34.6958 34.0771 35.9367C34.1137 35.9893 34.1785 36.0118 34.2381 35.9925C37.9966 34.7989 41.8084 32.9977 45.7425 30.0308C45.777 30.0051 45.799 29.9653 45.8021 29.9224C46.7608 19.7347 44.1952 10.8855 39.0013 3.04001C38.9888 3.01425 38.9668 2.99492 38.9417 2.98419ZM15.3715 24.5554C13.105 24.5554 11.2378 22.4193 11.2378 19.7948C11.2378 17.1703 13.0694 15.0343 15.3715 15.0343C17.6925 15.0343 19.5419 17.1897 19.5053 19.7948C19.5064 22.4182 17.6747 24.5554 15.3715 24.5554ZM30.6574 24.5554C28.3908 24.5554 26.5236 22.4193 26.5236 19.7948C26.5236 17.1703 28.3553 15.0343 30.6574 15.0343C32.9783 15.0343 34.8278 17.1897 34.7912 19.7948C34.7912 22.4182 32.9783 24.5554 30.6574 24.5554Z" fill="white"/>
</svg>
