<svg width="71" height="71" viewBox="0 0 71 71" fill="none" xmlns="http://www.w3.org/2000/svg">
<path fill-rule="evenodd" clip-rule="evenodd" d="M35.4993 5.91602C51.8353 5.91602 65.0827 19.1634 65.0827 35.4993C65.0827 51.8353 51.8353 65.0827 35.4993 65.0827C19.1634 65.0827 5.91602 51.8353 5.91602 35.4993C5.91602 19.1634 19.1634 5.91602 35.4993 5.91602ZM35.4993 11.8327C22.4501 11.8327 11.8327 22.4501 11.8327 35.4993C11.8327 48.5486 22.4501 59.166 35.4993 59.166C48.5486 59.166 59.166 48.5486 59.166 35.4993C59.166 22.4501 48.5486 11.8327 35.4993 11.8327ZM42.2828 24.5328L46.4659 28.7159L39.6824 35.4993L46.4659 42.2828L42.2828 46.4659L35.4993 39.6824L28.7159 46.4659L24.5328 42.2828L31.3163 35.4993L24.5328 28.7159L28.7159 24.5328L35.4993 31.3163L42.2828 24.5328Z" fill="#FF0000"/>
</svg>
