<svg width="50" height="50" viewBox="0 0 50 50" fill="none" xmlns="http://www.w3.org/2000/svg">
<path d="M5.5 7C3.03125 7 1.01172 9.01562 1 11.4844C1 11.4844 1 11.4883 1 11.4922C1 11.4961 1 11.4961 1 11.5V38.5C1 40.9727 3.02734 43 5.5 43H44.5C46.9727 43 49 40.9727 49 38.5V11.5C49 11.4961 49 11.4961 49 11.4922C49 11.4883 49 11.4844 49 11.4844C48.9883 9.01562 46.9688 7 44.5 7H5.5ZM8.10156 9H41.9023L25 20.7812L8.10156 9ZM4.77344 9.11719L25 23.2188L45.2305 9.11719C46.2539 9.42578 46.9922 10.3555 47 11.4883C46.9961 11.6992 46.7812 12.1211 46.4688 12.4609C46.1523 12.8047 45.8438 13.0195 45.8438 13.0195L45.8398 13.0273L25 27.7773L4.16016 13.0273L4.15625 13.0195C4.15625 13.0195 3.84766 12.8047 3.53125 12.4609C3.21875 12.1211 3.00391 11.6992 3 11.4883C3.00781 10.3555 3.74609 9.42578 4.77344 9.11719ZM3 14.6523L3.00781 14.6602L3.01562 14.6641V14.668L6 16.7773V41H5.5C4.10938 41 3 39.8906 3 38.5V14.6523ZM47 14.6523V38.5C47 39.8906 45.8906 41 44.5 41H44V16.7773L46.9844 14.668V14.6641L47 14.6523ZM8 18.1914L25 30.2227L42 18.1914V41H8V18.1914Z" fill="white"/>
</svg>
