<svg width="23" height="23" viewBox="0 0 23 23" fill="none" xmlns="http://www.w3.org/2000/svg">
<path d="M6.70833 8.62565H16.2917M6.70833 12.459H16.2917M20.125 19.1673L16.9392 17.5744C16.6977 17.4536 16.577 17.3933 16.4504 17.3507C16.338 17.3129 16.2224 17.2856 16.105 17.2691C15.9727 17.2507 15.8377 17.2507 15.5677 17.2507H5.94167C4.86823 17.2507 4.33151 17.2507 3.92152 17.0417C3.56087 16.858 3.26766 16.5648 3.08391 16.2042C2.875 15.7942 2.875 15.2574 2.875 14.184V6.90065C2.875 5.82721 2.875 5.2905 3.08391 4.8805C3.26766 4.51985 3.56087 4.22664 3.92152 4.04289C4.33151 3.83398 4.86824 3.83398 5.94167 3.83398H17.0583C18.1318 3.83398 18.6685 3.83398 19.0785 4.04289C19.4391 4.22664 19.7324 4.51985 19.9161 4.8805C20.125 5.2905 20.125 5.82722 20.125 6.90065V19.1673Z" stroke="white" stroke-linecap="round" stroke-linejoin="round"/>
</svg>
