<svg width="287" height="287" viewBox="0 0 287 287" fill="none" xmlns="http://www.w3.org/2000/svg">
<rect width="287" height="287" rx="20" fill="#383838"/>
<path d="M197.016 263.399C184.666 263.399 174.889 253.107 174.889 241.272V236.126H179.005V241.272C179.005 251.563 187.238 259.797 197.53 259.797C207.822 259.797 216.055 251.563 216.055 241.272V217.086C216.055 207.309 224.288 199.076 234.065 199.076C243.842 199.076 252.075 207.309 252.075 217.086V222.232H247.959V217.086C247.959 209.368 241.784 203.193 234.065 203.193C226.347 203.193 220.171 209.368 220.171 217.086V241.272C219.657 253.107 209.366 263.399 197.016 263.399Z" fill="#ACB3BA"/>
<path d="M267 235.095V249.503C267 259.28 259.281 267 249.504 267C239.727 267 232.008 259.281 232.008 249.503V235.095C232.008 234.581 232.008 234.066 232.008 233.551C232.008 232.522 232.522 231.493 232.522 230.464C234.581 223.774 240.241 218.628 247.96 217.6C248.475 217.6 248.989 217.6 249.504 217.6C250.019 217.6 250.533 217.6 251.048 217.6C255.164 218.114 258.766 219.658 261.854 222.745C263.913 224.804 265.456 227.377 266.485 230.464C266.485 231.493 267 232.523 267 233.551C267 234.066 267 234.581 267 235.095Z" fill="white"/>
<path d="M193.924 86.8711H27.7311C23.5947 86.8711 20 90.4658 20 94.6022V213.966H200.08V93.0756C200.08 89.4809 197.519 86.8711 193.924 86.8711Z" fill="#334A5E"/>
<path d="M20 213.473V227.901C20 232.037 23.5947 235.632 27.7311 235.632H192.348C196.485 235.632 200.08 232.037 200.08 227.901V213.473H20Z" fill="#F2F2F2"/>
<path d="M266.485 230.464H251.048V217.6C250.533 217.6 250.019 217.6 249.504 217.6C248.989 217.6 248.475 217.6 247.96 217.6V230.464H232.522C232.522 231.493 232.008 232.523 232.008 233.551H266.485C267 232.523 266.485 231.493 266.485 230.464Z" fill="#F7F7F7"/>
<path d="M110.064 228.935C112.349 228.935 114.2 227.083 114.2 224.798C114.2 222.514 112.349 220.662 110.064 220.662C107.78 220.662 105.928 222.514 105.928 224.798C105.928 227.083 107.78 228.935 110.064 228.935Z" fill="#CDD6E0"/>
<path d="M144.484 235.582H75.5449V255.673H144.484V235.582Z" fill="#CDD6E0"/>
<path d="M157.387 267H62.6934V257.2C62.6934 256.166 63.1858 255.674 64.2199 255.674H156.303C157.337 255.674 157.83 256.166 157.83 257.2V267H157.387Z" fill="#F2F2F2"/>
<path d="M144.484 235.584H75.5449V241.247H144.484V235.584Z" fill="#ACB3BA"/>
<path d="M187.72 97.7051H31.8184V202.69H187.72V97.7051Z" fill="white"/>
<path d="M188 98H32V203H188V98Z" fill="#F2F2F2"/>
<path d="M165.511 107.75C178.021 107.75 188.162 97.6089 188.162 85.0988C188.162 72.5887 178.021 62.4473 165.511 62.4473C153.001 62.4473 142.859 72.5887 142.859 85.0988C142.859 97.6089 153.001 107.75 165.511 107.75Z" fill="#FFD15C"/>
<path d="M165.512 102.087C174.895 102.087 182.501 94.4806 182.501 85.098C182.501 75.7154 174.895 68.1094 165.512 68.1094C156.13 68.1094 148.523 75.7154 148.523 85.098C148.523 94.4806 156.13 102.087 165.512 102.087Z" fill="#F8B64C"/>
<path d="M224.356 88.9393C241.979 88.9393 256.265 74.6531 256.265 57.0302C256.265 39.4073 241.979 25.1211 224.356 25.1211C206.733 25.1211 192.447 39.4073 192.447 57.0302C192.447 74.6531 206.733 88.9393 224.356 88.9393Z" fill="#FFD15C"/>
<path d="M224.356 81.2076C237.709 81.2076 248.534 70.3828 248.534 57.0296C248.534 43.6764 237.709 32.8516 224.356 32.8516C211.003 32.8516 200.178 43.6764 200.178 57.0296C200.178 70.3828 211.003 81.2076 224.356 81.2076Z" fill="#F8B64C"/>
<path d="M221.795 58.4081V60.821H231.693V63.1354H221.795V69.34H218.545V63.1847H216.871V60.8703H218.545V58.4081H216.871V55.6013H218.545V44.7188H226.276C228.492 44.7188 230.167 44.965 231.299 45.4081C232.432 45.8513 233.367 46.6392 234.057 47.7718C234.746 48.9044 235.091 50.1354 235.091 51.5142C235.091 52.893 234.845 54.0256 234.352 54.9119C233.86 55.7983 233.17 56.5369 232.333 57.0786C231.496 57.6203 230.56 57.965 229.477 58.2112C228.394 58.4081 227.261 58.5066 226.129 58.5066H221.795V58.4081ZM226.03 55.6013C226.769 55.6013 227.507 55.5521 228.197 55.4044C228.886 55.3059 229.477 55.0597 230.019 54.7642C230.511 54.4687 230.954 54.0256 231.25 53.4839C231.545 52.9422 231.693 52.2528 231.693 51.4157C231.693 50.6771 231.545 50.0862 231.299 49.5445C231.004 49.0521 230.659 48.6089 230.167 48.3134C229.674 48.018 229.132 47.7718 228.492 47.6241C227.852 47.4763 227.163 47.4271 226.424 47.4271H221.845V55.6013H226.03Z" fill="#FFD15C"/>
<path d="M163.345 86.3778V88.2983H171.126V90.1203H163.345V94.9953H160.785V90.1203H159.455V88.2983H160.785V86.3778H159.455V84.1619H160.785V75.5938H166.841C168.565 75.5938 169.894 75.7907 170.781 76.1354C171.667 76.4801 172.406 77.071 172.947 77.9574C173.489 78.8437 173.735 79.8286 173.735 80.8627C173.735 81.946 173.538 82.8324 173.144 83.5218C172.751 84.2112 172.209 84.8021 171.569 85.196C170.929 85.6392 170.141 85.8854 169.304 86.0824C168.466 86.2301 167.58 86.3286 166.644 86.3286H163.345V86.3778ZM166.694 84.1619C167.285 84.1619 167.826 84.1127 168.368 84.0142C168.91 83.9157 169.402 83.768 169.796 83.5218C170.19 83.2756 170.535 82.9309 170.781 82.5369C171.027 82.0937 171.126 81.6013 171.126 80.9119C171.126 80.321 171.027 79.8286 170.781 79.4347C170.584 79.0407 170.288 78.696 169.894 78.4498C169.501 78.2036 169.057 78.0066 168.565 77.9081C168.073 77.8097 167.531 77.7604 166.94 77.7604H163.345V84.1619H166.694Z" fill="#FFD15C"/>
<path d="M132.913 136.606C139.222 136.606 144.337 131.491 144.337 125.182C144.337 118.873 139.222 113.758 132.913 113.758C126.603 113.758 121.488 118.873 121.488 125.182C121.488 131.491 126.603 136.606 132.913 136.606Z" fill="#FFD15C"/>
<path d="M132.912 133.75C137.644 133.75 141.48 129.914 141.48 125.181C141.48 120.449 137.644 116.613 132.912 116.613C128.18 116.613 124.344 120.449 124.344 125.181C124.344 129.914 128.18 133.75 132.912 133.75Z" fill="#F8B64C"/>
<path d="M131.78 125.821V126.757H135.67V127.693H131.78V130.155H130.5V127.693H129.811V126.757H130.5V125.821H129.811V124.689H130.5V120.355H133.553C134.439 120.355 135.079 120.454 135.523 120.602C135.966 120.799 136.36 121.094 136.606 121.537C136.901 121.98 137 122.473 137 123.015C137 123.556 136.901 123.999 136.704 124.344C136.508 124.689 136.261 124.984 135.917 125.181C135.572 125.378 135.227 125.526 134.784 125.624C134.341 125.723 133.898 125.772 133.454 125.772H131.78V125.821ZM133.454 124.689C133.75 124.689 134.045 124.689 134.292 124.64C134.587 124.59 134.784 124.492 134.981 124.393C135.178 124.246 135.326 124.098 135.473 123.901C135.572 123.704 135.67 123.408 135.67 123.064C135.67 122.768 135.621 122.522 135.523 122.325C135.424 122.128 135.276 121.98 135.079 121.833C134.883 121.685 134.686 121.636 134.439 121.537C134.193 121.488 133.898 121.439 133.602 121.439H131.78V124.689H133.454Z" fill="#FFD15C"/>
<path d="M105.387 157.732V161.671L103.86 160.736V162.558L100.659 160.687V158.815L99.1328 157.978L99.0835 159.8L97.5077 158.865V160.391L95.932 159.455L95.9812 157.978L94.4055 157.19L94.4547 158.569L92.879 157.732V154.531L91.2047 153.596L91.1555 155.418L89.629 154.679L89.5797 150.74L88.2009 150.05L88.2502 155.073L86.4774 154.187V152.512L83.4244 150.74L83.4737 148.918L81.9471 148.228L81.8487 149.952L80.5684 149.213V143.156L105.387 157.732Z" fill="#648C31"/>
<path d="M105.387 161.672V186.933L80.5684 172.357V149.213L81.8487 149.952L81.9471 148.229L83.4737 148.918L83.4244 150.74L86.4774 152.513V154.187L88.2502 155.073L88.2009 150.05L89.5797 150.74L89.629 154.679L91.1555 155.418L91.2047 153.596L92.879 154.532V157.732L94.4547 158.569L94.4055 157.191L95.9812 157.979L95.932 159.456L97.5077 160.391V158.865L99.0835 159.8L99.1328 157.979L100.659 158.816V160.687L103.86 162.558V160.736L105.387 161.672Z" fill="#996633"/>
<path d="M130.205 143.156L105.387 157.732L80.5684 143.156L105.387 128.531L130.205 143.156Z" fill="#669933"/>
<path d="M130.205 143.156V149.115L128.678 150.001V148.228L125.478 150.099V151.921L123.951 152.759L123.902 150.986L122.326 151.921V150.346L120.75 151.281L120.8 152.808L119.224 153.596L119.273 152.168L117.697 153.005L117.747 156.205L116.023 157.141L115.974 155.368L114.447 156.058V159.997L113.069 160.687V155.713L111.345 156.55L111.296 158.224L108.243 160.046L108.292 161.819L106.766 162.558L106.667 160.785L105.387 161.524V157.732L130.205 143.156Z" fill="#5B842C"/>
<path d="M130.205 149.115V172.357L105.387 186.933V161.524L106.667 160.785L106.766 162.558L108.292 161.819L108.243 160.047L111.296 158.225L111.345 156.55L113.069 155.713V160.687L114.447 159.997V156.058L115.974 155.369L116.023 157.141L117.747 156.206L117.697 153.005L119.273 152.168L119.224 153.596L120.8 152.808L120.75 151.282L122.326 150.346V151.922L123.902 150.986L123.951 152.759L125.478 151.922V150.1L128.678 148.229V150.001L130.205 149.115Z" fill="#996633"/>
<path d="M124.984 166.891L130.106 186.932L135.276 181.811L139.905 186.932L144.534 182.304L139.363 177.182L144.534 172.554L124.984 166.891Z" fill="#40596B"/>
</svg>
