<svg width="71" height="71" viewBox="0 0 71 71" fill="none" xmlns="http://www.w3.org/2000/svg">
<path fill-rule="evenodd" clip-rule="evenodd" d="M35.4993 5.91602C19.161 5.91602 5.91602 19.161 5.91602 35.4993C5.91602 51.8377 19.161 65.0827 35.4993 65.0827C51.8377 65.0827 65.0827 51.8377 65.0827 35.4993C65.0827 19.161 51.8377 5.91602 35.4993 5.91602ZM35.4993 59.166C22.4496 59.166 11.8327 48.5491 11.8327 35.4993C11.8327 22.4496 22.4496 11.8327 35.4993 11.8327C48.5491 11.8327 59.166 22.4496 59.166 35.4993C59.166 48.5491 48.5491 59.166 35.4993 59.166ZM46.6397 24.9299L50.8229 29.1132L32.541 47.4717L21.5744 36.5051L25.7576 32.3218L32.541 39.1052L46.6397 24.9299Z" fill="#33FF00"/>
</svg>
